<svg id="beneath" enable-background="new 0 0 300 300" height="512" viewBox="0 0 300 300" width="512" xmlns="http://www.w3.org/2000/svg"><g><path d="m237.594 196.748c-6.617 0-12 5.383-12 12s5.383 12 12 12 12-5.383 12-12-5.383-12-12-12zm0 16c-2.207 0-4-1.793-4-4s1.793-4 4-4 4 1.793 4 4-1.793 4-4 4z"/><path d="m207.783 242.193c-2.501-.005-4.533 2.02-4.538 4.521s2.02 4.533 4.521 4.538 4.533-2.02 4.538-4.521c.005-2.502-2.02-4.533-4.521-4.538z"/><path d="m71.961 220.471c-1.559-1.566-4.09-1.57-5.656-.008l-4.528 4.512-4.511-4.528c-1.559-1.566-4.09-1.57-5.656-.008-1.562 1.559-1.57 4.09-.008 5.656l4.509 4.526-4.529 4.513c-1.562 1.559-1.57 4.09-.008 5.656.781.785 1.805 1.176 2.832 1.176 1.02 0 2.043-.391 2.824-1.168l4.526-4.51 4.513 4.53c.781.785 1.805 1.176 2.832 1.176 1.02 0 2.043-.387 2.824-1.168 1.562-1.559 1.57-4.09.008-5.656l-4.511-4.528 4.531-4.515c1.563-1.559 1.57-4.09.008-5.656z"/><path d="m185.594 196.904h-16v-36.156h68c2.211 0 4-1.789 4-4v-32c0-2.211-1.789-4-4-4h-68v-32h68c2.211 0 4-1.789 4-4v-32c0-2.211-1.789-4-4-4h-176c-2.211 0-4 1.789-4 4v32c0 2.211 1.789 4 4 4h68v32h-68c-2.211 0-4 1.789-4 4v32c0 2.211 1.789 4 4 4h68v36.156h-16c-1.582 0-3.016.93-3.656 2.375s-.371 3.133.688 4.305l36 39.844c.758.84 1.836 1.32 2.969 1.32s2.211-.48 2.969-1.32l36-39.844c1.059-1.172 1.328-2.859.688-4.305s-2.076-2.375-3.658-2.375zm48-68.156v24h-64v-24zm-168 24v-24h64v24zm84 82.035-26.996-29.879h10.996c2.211 0 4-1.789 4-4v-116.156c0-2.211-1.789-4-4-4h-68v-24h168v24h-68c-2.211 0-4 1.789-4 4v116.156c0 2.211 1.789 4 4 4h10.996z"/></g></svg>