<svg id="above" enable-background="new 0 0 300 300" height="512" viewBox="0 0 300 300" width="512" xmlns="http://www.w3.org/2000/svg"><g><path d="m221.594 111.969c6.617 0 12-5.383 12-12s-5.383-12-12-12-12 5.383-12 12 5.383 12 12 12zm0-16c2.207 0 4 1.793 4 4s-1.793 4-4 4-4-1.793-4-4 1.793-4 4-4z"/><path d="m219.766 62.473c2.502.005 4.533-2.02 4.538-4.521s-2.02-4.533-4.521-4.537c-2.501-.005-4.533 2.02-4.538 4.521s2.02 4.532 4.521 4.537z"/><path d="m70.27 84.039c.781.785 1.805 1.176 2.832 1.176 1.02 0 2.043-.387 2.824-1.168 1.562-1.559 1.57-4.09.008-5.656l-4.511-4.528 4.531-4.515c1.562-1.559 1.57-4.09.008-5.656-1.559-1.566-4.09-1.57-5.656-.008l-4.528 4.512-4.511-4.528c-1.559-1.566-4.09-1.57-5.656-.008-1.562 1.559-1.57 4.09-.008 5.656l4.509 4.526-4.529 4.513c-1.562 1.559-1.57 4.09-.008 5.656.781.785 1.805 1.176 2.832 1.176 1.02 0 2.043-.391 2.824-1.168l4.526-4.51z"/><path d="m241.594 175.969c2.211 0 4-1.789 4-4v-32c0-2.211-1.789-4-4-4h-68v-36.157h16c1.582 0 3.016-.93 3.656-2.375s.371-3.133-.688-4.309l-36-39.844c-1.516-1.672-4.422-1.672-5.938 0l-36 39.844c-1.059 1.176-1.328 2.863-.688 4.309s2.074 2.375 3.656 2.375h16v36.156h-68c-2.211 0-4 1.789-4 4v32c0 2.211 1.789 4 4 4h68v32h-68c-2.211 0-4 1.789-4 4v32c0 2.211 1.789 4 4 4h176c2.211 0 4-1.789 4-4v-32c0-2.211-1.789-4-4-4h-68v-32h68.002zm-104-84.157h-10.996l26.996-29.879 26.996 29.879h-10.996c-2.211 0-4 1.789-4 4v40.156h-24v-40.156c0-2.21-1.789-4-4-4zm-68 52.157h168v24h-168zm100 72h68v24h-168v-24h68c2.211 0 4-1.789 4-4v-36h24v36c0 2.211 1.789 4 4 4z"/></g></svg>